<svg height="32" viewBox="0 0 32 32" width="32" xmlns="http://www.w3.org/2000/svg"><title/><path d="M19 26v2.003C19 29.11 18.106 30 17.003 30H1.997C.89 30 0 29.1 0 27.993V5.007C0 3.897.9 3 2.01 3H12v6.002c0 1.11.898 1.998 2.006 1.998H19v2H6.007C4.347 13 3 14.342 3 16v7c0 1.657 1.336 3 3.007 3H19zM13 3v5.997c0 .554.45 1.003.99 1.003H19l-6-7zM6.007 14C4.9 14 4 14.9 4 15.992v7.016C4 24.108 4.898 25 6.007 25h22.986C30.1 25 31 24.1 31 23.008v-7.016c0-1.1-.898-1.992-2.007-1.992H6.007zM29 22v1h-5v-7h1v6h4zm-15-5v6h1v-6h2v-1h-5v1h2zm-4 2v-3h1v7h-1v-3H7v3H6v-7h1v3h3zm10.5 0L19 16h-1v7h1v-5l1 2h1l1-2v5h1v-7h-1l-1.5 3z" fill="#157EFB" fill-rule="evenodd"/></svg>