<svg height="32" viewBox="0 0 32 32" width="32" xmlns="http://www.w3.org/2000/svg"><title/><path d="M21 26v2.003C21 29.11 20.106 30 19.003 30H3.997C2.89 30 2 29.1 2 27.993V5.007C2 3.897 2.9 3 4.01 3H14v6.002c0 1.11.898 1.998 2.006 1.998H21v2h-8.993C10.347 13 9 14.342 9 16v7c0 1.657 1.336 3 3.007 3H21zM15 3v5.997c0 .554.45 1.003.99 1.003H21l-6-7zm-3.005 11C10.893 14 10 14.9 10 15.992v7.016c0 1.1.902 1.992 1.995 1.992h17.01C30.107 25 31 24.1 31 23.008v-7.016c0-1.1-.902-1.992-1.995-1.992h-17.01zM25 19v-2h4v-1h-5v7h1v-3h3v-1h-3zm-13-1v5h1v-3h1.995C16.102 20 17 19.112 17 18c0-1.105-.894-2-2.005-2H12v2zm1-1v2h2c.553 0 1-.444 1-1 0-.552-.443-1-1-1h-2zm5-1v7h2.995C22.102 23 23 22.113 23 20.994v-2.988C23 16.898 22.106 16 20.995 16H18zm1 1v5h2c.553 0 1-.444 1-1v-3c0-.552-.443-1-1-1h-2z" fill="#157EFB" fill-rule="evenodd"/></svg>